# xmcd
#
# Track frame offsets: 
#        150
#        10887
#        23705
#        36500
#        50190
#        62592
#        75212
#        86070
#        99065
#        110390
#
# Disc length: 1593 seconds
#
# Revision: 1
# Processed by: cddbd v1.5.1PL0 Copyright (c) Steve Scherf et al.
# Submitted via: ExactAudioCopy v0.95a5
#
DISCID=6f06370a
DTITLE=Stonewall Jackson - Stonewall Jackson: All The Best
DYEAR=1994
DGENRE=Country
TTITLE0=Waterloo
TTITLE1=Don't Be Angry
TTITLE2=I Washed My Hands In Muddy Water
TTITLE3=B. J. The D. J.
TTITLE4=Life To Go
TTITLE5=A Wound Time Can't Erase
TTITLE6=Why I'm Walkin'
TTITLE7=Herman Schwartz
TTITLE8=Read Between The Lines
TTITLE9=Don't Be Late
EXTD=
EXTT0=
EXTT1=
EXTT2=
EXTT3=
EXTT4=
EXTT5=
EXTT6=
EXTT7=
EXTT8=
EXTT9=
PLAYORDER=
